<?xml version="1.0" encoding="UTF-8"?><svg id="Layer_1" xmlns="http://www.w3.org/2000/svg" viewBox="0 0 405.94 204.65"><defs><style>.cls-1{fill:#fff;}.cls-2{fill:none;stroke:#fff;stroke-miterlimit:10;stroke-width:8px;}</style></defs><g><path class="cls-1" d="M53.9,140.3V48.08h12.34v93.12c0,3.77,1.64,5.27,3.44,5.27,.71,0,1.31,0,2.7-.3l1.67,9.42c-1.75,.63-3.87,1.15-7.1,1.15-9.25,0-13.05-5.9-13.05-16.44Z"/><path class="cls-1" d="M86.73,118.58c0-23.73,15.99-38.35,32.78-38.35,18.6,0,29.1,13.36,29.1,34.21,0,2.6-.22,5.21-.58,7.01h-49.1c.88,15.45,10.33,25.46,24.22,25.46,7,0,12.74-2.26,18.14-5.83l4.42,8.09c-6.39,4.18-14.16,7.56-24.08,7.56-19.43,0-34.91-14.21-34.91-38.16Zm50.97-5.97c0-14.61-6.57-22.55-17.97-22.55-10.25,0-19.41,8.23-20.91,22.55h38.88Z"/><path class="cls-1" d="M161.35,118.58c0-23.65,14.92-38.35,31.55-38.35,8.48,0,14.04,3.19,20.43,8.45l-.52-12.51v-28.09h12.34v106.86h-10.19l-1.04-8.61h-.41c-5.67,5.67-13.44,10.41-22.12,10.41-18.22,0-30.03-13.86-30.03-38.16Zm51.46,17.83v-38.22c-6.22-5.54-11.83-7.58-17.78-7.58-11.66,0-20.93,11.25-20.93,27.86,0,17.48,7.23,27.89,20.01,27.89,6.74,0,12.59-3.29,18.7-9.95Z"/></g><path class="cls-1" d="M333.15,47.22c-29.83-16.47-70.76-.53-70.88,36.02,.21,14.05,6.21,28.81,17.7,37.3,7.49,4.91,16.89,8.69,25.76,6.11,12.89-4.06,20.01-20.74,11.04-31.87-8.7-11.09-25.66-11.8-33.57,.55-1.39,2.08-2.65,4.62-3.35,6.95-.75,2.67-4.68,2.47-5.19-.22-4.97-19.62,4.37-38.07,26.12-38.15,11.27,.08,22.36,4.82,30.05,13.1,9.19,10.29,11.8,25.28,8.34,38.42-3.19,10.62-10.2,19.9-18.86,26.69-13.46,10.35-29.55,16.76-46.36,18.33,0,0-.49-8.85-.49-8.85,27.59,1.02,57.6,2.37,85.02,4.63,.28,.02,.48,.27,.46,.54-.02,.25-.22,.44-.47,.46-14.18,.96-28.36,1.56-42.55,2.1-10.6,.35-31.94,.97-42.54,1.15-5.53-.02-6.17-7.89-.74-8.81,11.31-1.59,22.15-5.47,31.81-11.45,10.91-6.44,20.51-15.48,24.47-27.69,3.23-11.31,.49-25.19-9.01-32.63-7.85-6.21-19.57-9.58-29.11-5.72-10.15,4.24-12.6,16.23-10.89,26.68,0,0-5.19-.22-5.19-.22,2.34-5.86,6.2-10.93,11.51-14.38,10.69-6.92,25.52-3.17,32.94,6.67,10.26,12.93,2.8,32.37-11.83,38.27-8.81,3.49-18.92,1.49-27.2-2.22-17.38-7.7-26.98-27.38-26.75-45.8-.02-20.9,14-39.2,33.91-45.13,15.57-5.03,33.84-1.59,46.41,8.32,.48,.4-.01,1.12-.55,.84h0Z"/><rect class="cls-2" x="4" y="4" width="397.94" height="196.65" rx="45.14" ry="45.14"/></svg>